<svg height='100px' width='100px'  fill="#ffffff" xmlns="http://www.w3.org/2000/svg" version="1.1" viewBox="0 0 32 32" x="0px" y="0px"><title>maximize-alt</title><path d="M30.825 0.001c-0.044 0.001-0.086 0.005-0.127 0.011l0.006-0.001h-8.994c-0.005 0-0.010 0-0.016 0-0.631 0-1.142 0.511-1.142 1.142s0.511 1.142 1.142 1.142c0.006 0 0.011 0 0.017 0h6.379l-7.187 7.187c-0.206 0.207-0.333 0.491-0.333 0.806 0 0.631 0.512 1.142 1.143 1.142 0.314 0 0.599-0.127 0.805-0.332l7.187-7.187v6.379c0 0.005 0 0.010 0 0.016 0 0.631 0.511 1.142 1.142 1.142s1.142-0.511 1.142-1.142c0-0.006 0-0.011 0-0.017v0.001-8.997c0.006-0.045 0.010-0.098 0.010-0.151 0-0.631-0.511-1.142-1.142-1.142-0.011 0-0.023 0-0.034 0.001h0.002zM1.135 20.554c-0.624 0.010-1.126 0.517-1.126 1.142 0 0.006 0 0.011 0 0.017v-0.001 9.137c0 0.001 0 0.002 0 0.003s0 0.002 0 0.003v0c0 0.033 0.002 0.066 0.005 0.098l-0.001-0.005c0.001 0.009 0.001 0.014 0.001 0.019v-0.004c0.003 0.034 0.008 0.063 0.013 0.092l-0.001-0.007c0.003 0.018 0.005 0.029 0.007 0.039l-0.001-0.007c0.024 0.111 0.061 0.21 0.109 0.3l-0.003-0.006c0.007 0.015 0.012 0.023 0.017 0.031l-0.003-0.006c0.017 0.030 0.031 0.054 0.047 0.078l-0.003-0.004c0.007 0.012 0.012 0.019 0.017 0.026l-0.003-0.004c0.064 0.091 0.137 0.17 0.22 0.237l0.002 0.002c0.003 0.002 0.006 0.006 0.010 0.009l0.001 0.001c0.186 0.147 0.422 0.238 0.679 0.244h0.001c0.004 0 0.009 0 0.013 0s0.009 0 0.014 0h9.136c0.005 0 0.010 0 0.016 0 0.631 0 1.142-0.511 1.142-1.142s-0.511-1.142-1.142-1.142c-0.006 0-0.011 0-0.017 0h-6.378l7.186-7.187c0.213-0.208 0.345-0.497 0.345-0.818 0-0.631-0.511-1.142-1.142-1.142-0.011 0-0.023 0-0.034 0.001h0.002c-0.308 0.009-0.585 0.139-0.785 0.344l-7.187 7.189v-6.38c0-0.005 0-0.010 0-0.015 0-0.631-0.512-1.142-1.142-1.142-0.006 0-0.012 0-0.018 0h0.001z"></path></svg>